<svg width="1521" height="1564" viewBox="0 0 1521 1564" fill="none" xmlns="http://www.w3.org/2000/svg">
<g filter="url(#filter0_d_76_204)">
<path d="M760.307 1493.08C648.794 1378.21 601.733 1221.32 619.61 1071.32C561.746 1110.96 490.156 1134.41 412.653 1134.41V1096.72C412.655 1035.55 431.145 978.388 463.213 929.723C325.645 944.933 182.855 898.254 77.4047 789.628L64 775.818C174.459 662.037 324.941 613.388 469.303 630.375C433.451 579.821 412.573 519.351 412.573 454.354V416.668C490.351 416.665 562.154 440.282 620.119 480.165C602.11 330.038 649.153 172.975 760.768 58C872.372 172.968 919.417 330.023 901.417 480.141C959.373 440.278 1031.14 416.648 1108.88 416.641V465.436C1108.88 525.59 1090.32 581.715 1058.3 629.254C1200.64 614.491 1348.22 663.359 1457 775.41L1443.59 789.221C1338.22 897.764 1195.57 944.451 1058.09 929.34C1090.3 978.084 1108.89 1035.4 1108.88 1096.72V1134.41C1030.94 1134.41 958.964 1110.7 900.932 1070.66C919.025 1220.86 871.982 1378.04 760.307 1493.08Z" fill="url(#paint0_linear_76_204)"/>
<mask id="mask0_76_204" style="mask-type:luminance" maskUnits="userSpaceOnUse" x="64" y="58" width="1393" height="1436">
<path d="M760.307 1493.08C648.794 1378.21 601.733 1221.32 619.61 1071.32C561.746 1110.96 490.156 1134.41 412.653 1134.41V1096.72C412.655 1035.55 431.145 978.388 463.213 929.723C325.645 944.933 182.855 898.254 77.4047 789.628L64 775.818C174.459 662.037 324.941 613.388 469.303 630.375C433.451 579.821 412.573 519.351 412.573 454.354V416.668C490.351 416.665 562.154 440.282 620.119 480.165C602.11 330.038 649.153 172.975 760.768 58C872.372 172.968 919.417 330.023 901.417 480.141C959.373 440.278 1031.14 416.648 1108.88 416.641V465.436C1108.88 525.59 1090.32 581.715 1058.3 629.254C1200.64 614.491 1348.22 663.359 1457 775.41L1443.59 789.221C1338.22 897.764 1195.57 944.451 1058.09 929.34C1090.3 978.084 1108.89 1035.4 1108.88 1096.72V1134.41C1030.94 1134.41 958.964 1110.7 900.932 1070.66C919.025 1220.86 871.982 1378.04 760.307 1493.08Z" fill="white"/>
</mask>
<g mask="url(#mask0_76_204)">
<path d="M1589.88 -66.0191H-68.8774V1634.81H1589.88V-66.0191Z" fill="url(#paint1_radial_76_204)"/>
</g>
<mask id="mask1_76_204" style="mask-type:luminance" maskUnits="userSpaceOnUse" x="64" y="58" width="1393" height="1436">
<path d="M760.307 1493.08C648.794 1378.21 601.733 1221.32 619.61 1071.32C561.746 1110.96 490.156 1134.41 412.653 1134.41V1096.72C412.655 1035.55 431.145 978.388 463.213 929.723C325.645 944.933 182.855 898.254 77.4047 789.628L64 775.818C174.459 662.037 324.941 613.388 469.303 630.375C433.451 579.821 412.573 519.351 412.573 454.354V416.668C490.351 416.665 562.154 440.282 620.119 480.165C602.11 330.038 649.153 172.975 760.768 58C872.372 172.968 919.417 330.023 901.417 480.141C959.373 440.278 1031.14 416.648 1108.88 416.641V465.436C1108.88 525.59 1090.32 581.715 1058.3 629.254C1200.64 614.491 1348.22 663.359 1457 775.41L1443.59 789.221C1338.22 897.764 1195.57 944.451 1058.09 929.34C1090.3 978.084 1108.89 1035.4 1108.88 1096.72V1134.41C1030.94 1134.41 958.964 1110.7 900.932 1070.66C919.025 1220.86 871.982 1378.04 760.307 1493.08Z" fill="white"/>
</mask>
<g mask="url(#mask1_76_204)">
<path d="M1589.88 -66.0191H-68.8774V1634.81H1589.88V-66.0191Z" fill="url(#paint2_radial_76_204)"/>
</g>
</g>
<g filter="url(#filter1_d_76_204)">
<path d="M759.344 1355.98C669.285 1263.21 631.279 1136.51 645.716 1015.37C598.984 1047.38 541.168 1066.32 478.576 1066.32V1035.88C478.577 986.48 493.51 940.314 519.408 901.012C408.307 913.296 292.988 875.597 207.826 787.87L197 776.717C286.208 684.826 407.738 645.537 524.327 659.255C495.372 618.428 478.511 569.591 478.511 517.099V486.663C541.325 486.662 599.314 505.735 646.127 537.945C631.583 416.701 669.575 289.855 759.716 197C849.849 289.849 887.843 416.688 873.306 537.925C920.112 505.731 978.072 486.647 1040.86 486.642V526.049C1040.86 574.63 1025.87 619.957 1000 658.35C1114.96 646.428 1234.15 685.894 1322 776.388L1311.17 787.541C1226.07 875.202 1110.86 912.906 999.84 900.703C1025.85 940.069 1040.86 986.355 1040.86 1035.88V1066.32C977.909 1066.32 919.781 1047.17 872.914 1014.83C887.526 1136.14 849.534 1263.08 759.344 1355.98Z" fill="url(#paint3_linear_76_204)"/>
<mask id="mask2_76_204" style="mask-type:luminance" maskUnits="userSpaceOnUse" x="197" y="197" width="1125" height="1159">
<path d="M759.344 1355.98C669.285 1263.21 631.279 1136.51 645.716 1015.37C598.984 1047.38 541.168 1066.32 478.576 1066.32V1035.88C478.577 986.48 493.51 940.314 519.408 901.012C408.307 913.296 292.988 875.597 207.826 787.87L197 776.717C286.208 684.826 407.738 645.537 524.327 659.255C495.372 618.428 478.511 569.591 478.511 517.099V486.663C541.325 486.662 599.314 505.735 646.127 537.945C631.583 416.701 669.575 289.855 759.716 197C849.849 289.849 887.843 416.688 873.306 537.925C920.112 505.731 978.072 486.647 1040.86 486.642V526.049C1040.86 574.63 1025.87 619.957 1000 658.35C1114.96 646.428 1234.15 685.894 1322 776.388L1311.17 787.541C1226.07 875.202 1110.86 912.906 999.84 900.703C1025.85 940.069 1040.86 986.355 1040.86 1035.88V1066.32C977.909 1066.32 919.781 1047.17 872.914 1014.83C887.526 1136.14 849.534 1263.08 759.344 1355.98Z" fill="white"/>
</mask>
<g mask="url(#mask2_76_204)">
<path d="M1429.31 96.841H89.6868V1470.45H1429.31V96.841Z" fill="url(#paint4_radial_76_204)"/>
</g>
<mask id="mask3_76_204" style="mask-type:luminance" maskUnits="userSpaceOnUse" x="197" y="197" width="1125" height="1159">
<path d="M759.344 1355.98C669.285 1263.21 631.279 1136.51 645.716 1015.37C598.984 1047.38 541.168 1066.32 478.576 1066.32V1035.88C478.577 986.48 493.51 940.314 519.408 901.012C408.307 913.296 292.988 875.597 207.826 787.87L197 776.717C286.208 684.826 407.738 645.537 524.327 659.255C495.372 618.428 478.511 569.591 478.511 517.099V486.663C541.325 486.662 599.314 505.735 646.127 537.945C631.583 416.701 669.575 289.855 759.716 197C849.849 289.849 887.843 416.688 873.306 537.925C920.112 505.731 978.072 486.647 1040.86 486.642V526.049C1040.86 574.63 1025.87 619.957 1000 658.35C1114.96 646.428 1234.15 685.894 1322 776.388L1311.17 787.541C1226.07 875.202 1110.86 912.906 999.84 900.703C1025.85 940.069 1040.86 986.355 1040.86 1035.88V1066.32C977.909 1066.32 919.781 1047.17 872.914 1014.83C887.526 1136.14 849.534 1263.08 759.344 1355.98Z" fill="white"/>
</mask>
<g mask="url(#mask3_76_204)">
<path d="M1429.31 96.841H89.6868V1470.45H1429.31V96.841Z" fill="url(#paint5_radial_76_204)"/>
</g>
</g>
<g filter="url(#filter2_d_76_204)">
<path d="M759.884 1213.64C691.838 1143.55 663.122 1047.82 674.03 956.295C638.722 980.484 595.039 994.788 547.745 994.792V971.796C547.746 934.471 559.031 899.592 578.597 869.897C494.654 879.178 407.524 850.696 343.179 784.416L335 775.989C402.402 706.565 494.224 676.88 582.315 687.244C560.437 656.397 547.697 619.502 547.697 579.842V556.848C595.157 556.846 638.971 571.255 674.341 595.591C663.35 503.989 692.055 408.154 760.164 338C828.264 408.15 856.971 503.979 845.986 595.576C881.351 571.255 925.143 556.835 972.583 556.831V586.604C972.581 623.308 961.257 657.555 941.715 686.561C1028.57 677.554 1118.62 707.371 1185 775.74L1176.82 784.167C1112.52 850.396 1025.47 878.884 941.59 869.664C961.245 899.404 972.585 934.377 972.583 971.796V994.792C925.02 994.792 881.1 980.324 845.69 955.891C856.732 1047.54 828.026 1143.45 759.884 1213.64Z" fill="url(#paint6_linear_76_204)"/>
<mask id="mask4_76_204" style="mask-type:luminance" maskUnits="userSpaceOnUse" x="335" y="338" width="850" height="876">
<path d="M759.884 1213.64C691.838 1143.55 663.122 1047.82 674.03 956.295C638.722 980.484 595.039 994.788 547.745 994.792V971.796C547.746 934.471 559.031 899.592 578.597 869.897C494.654 879.178 407.524 850.696 343.179 784.416L335 775.989C402.402 706.565 494.224 676.88 582.315 687.244C560.437 656.397 547.697 619.502 547.697 579.842V556.848C595.157 556.846 638.971 571.255 674.341 595.591C663.35 503.989 692.055 408.154 760.164 338C828.264 408.15 856.971 503.979 845.986 595.576C881.351 571.255 925.143 556.835 972.583 556.831V586.604C972.581 623.308 961.257 657.555 941.715 686.561C1028.57 677.554 1118.62 707.371 1185 775.74L1176.82 784.167C1112.52 850.396 1025.47 878.884 941.59 869.664C961.245 899.404 972.585 934.377 972.583 971.796V994.792C925.02 994.792 881.1 980.324 845.69 955.891C856.732 1047.54 828.026 1143.45 759.884 1213.64Z" fill="white"/>
</mask>
<g mask="url(#mask4_76_204)">
<path d="M1498.57 26.399H21.4268V1541.02H1498.57V26.399Z" fill="url(#paint7_radial_76_204)"/>
</g>
<mask id="mask5_76_204" style="mask-type:luminance" maskUnits="userSpaceOnUse" x="335" y="338" width="850" height="876">
<path d="M759.884 1213.64C691.838 1143.55 663.122 1047.82 674.03 956.295C638.722 980.484 595.039 994.788 547.745 994.792V971.796C547.746 934.471 559.031 899.592 578.597 869.897C494.654 879.178 407.524 850.696 343.179 784.416L335 775.989C402.402 706.565 494.224 676.88 582.315 687.244C560.437 656.397 547.697 619.502 547.697 579.842V556.848C595.157 556.846 638.971 571.255 674.341 595.591C663.35 503.989 692.055 408.154 760.164 338C828.264 408.15 856.971 503.979 845.986 595.576C881.351 571.255 925.143 556.835 972.583 556.831V586.604C972.581 623.308 961.257 657.555 941.715 686.561C1028.57 677.554 1118.62 707.371 1185 775.74L1176.82 784.167C1112.52 850.396 1025.47 878.884 941.59 869.664C961.245 899.404 972.585 934.377 972.583 971.796V994.792C925.02 994.792 881.1 980.324 845.69 955.891C856.732 1047.54 828.026 1143.45 759.884 1213.64Z" fill="white"/>
</mask>
<g mask="url(#mask5_76_204)">
<path d="M1498.57 26.399H21.4268V1541.02H1498.57V26.399Z" fill="url(#paint8_radial_76_204)"/>
</g>
</g>
<g filter="url(#filter3_d_76_204)">
<path d="M759.413 1100C709.06 1048.13 687.81 977.291 695.882 909.558C669.754 927.458 637.428 938.044 602.432 938.046V921.029C602.433 893.407 610.782 867.595 625.262 845.621C563.144 852.489 498.668 831.411 451.053 782.362L445 776.126C494.877 724.749 562.826 702.782 628.012 710.452C611.823 687.625 602.396 660.32 602.396 630.971V613.954C637.516 613.953 669.938 624.617 696.112 642.626C687.98 574.837 709.222 503.916 759.621 452C810.015 503.913 831.258 574.83 823.13 642.615C849.3 624.615 881.706 613.945 916.811 613.942V635.975C916.81 663.137 908.429 688.48 893.969 709.946C958.242 703.28 1024.88 725.346 1074 775.942L1067.95 782.178C1020.37 831.19 955.951 852.271 893.877 845.448C908.421 867.458 916.812 893.337 916.811 921.029V938.046C881.615 938.047 849.115 927.34 822.911 909.258C831.081 977.081 809.839 1048.06 759.413 1100Z" fill="url(#paint9_linear_76_204)"/>
<mask id="mask6_76_204" style="mask-type:luminance" maskUnits="userSpaceOnUse" x="445" y="452" width="629" height="648">
<path d="M759.413 1100C709.06 1048.13 687.81 977.291 695.882 909.558C669.754 927.458 637.428 938.044 602.432 938.046V921.029C602.433 893.407 610.782 867.595 625.262 845.621C563.144 852.489 498.668 831.411 451.053 782.362L445 776.126C494.877 724.749 562.826 702.782 628.012 710.452C611.823 687.625 602.396 660.32 602.396 630.971V613.954C637.516 613.953 669.938 624.617 696.112 642.626C687.98 574.837 709.222 503.916 759.621 452C810.015 503.913 831.258 574.83 823.13 642.615C849.3 624.615 881.706 613.945 916.811 613.942V635.975C916.81 663.137 908.429 688.48 893.969 709.946C958.242 703.28 1024.88 725.346 1074 775.942L1067.95 782.178C1020.37 831.19 955.951 852.271 893.877 845.448C908.421 867.458 916.812 893.337 916.811 921.029V938.046C881.615 938.047 849.115 927.34 822.911 909.258C831.081 977.081 809.839 1048.06 759.413 1100Z" fill="white"/>
</mask>
<g mask="url(#mask6_76_204)">
<path d="M1134 396H385V1164H1134V396Z" fill="url(#paint10_radial_76_204)"/>
</g>
<mask id="mask7_76_204" style="mask-type:luminance" maskUnits="userSpaceOnUse" x="445" y="452" width="629" height="648">
<path d="M759.413 1100C709.06 1048.13 687.81 977.291 695.882 909.558C669.754 927.458 637.428 938.044 602.432 938.046V921.029C602.433 893.407 610.782 867.595 625.262 845.621C563.144 852.489 498.668 831.411 451.053 782.362L445 776.126C494.877 724.749 562.826 702.782 628.012 710.452C611.823 687.625 602.396 660.32 602.396 630.971V613.954C637.516 613.953 669.938 624.617 696.112 642.626C687.98 574.837 709.222 503.916 759.621 452C810.015 503.913 831.258 574.83 823.13 642.615C849.3 624.615 881.706 613.945 916.811 613.942V635.975C916.81 663.137 908.429 688.48 893.969 709.946C958.242 703.28 1024.88 725.346 1074 775.942L1067.95 782.178C1020.37 831.19 955.951 852.271 893.877 845.448C908.421 867.458 916.812 893.337 916.811 921.029V938.046C881.615 938.047 849.115 927.34 822.911 909.258C831.081 977.081 809.839 1048.06 759.413 1100Z" fill="white"/>
</mask>
<g mask="url(#mask7_76_204)">
<path d="M1134 396H385V1164H1134V396Z" fill="url(#paint11_radial_76_204)"/>
</g>
</g>
<g filter="url(#filter4_d_76_204)">
<path d="M759.441 998C724.938 962.46 710.377 913.922 715.908 867.512C698.005 879.777 675.855 887.03 651.874 887.032V875.372C651.875 856.446 657.597 838.76 667.518 823.703C624.954 828.409 580.774 813.967 548.147 780.359L544 776.086C578.177 740.884 624.736 725.832 669.403 731.087C658.31 715.446 651.85 696.738 651.85 676.628V664.969C675.915 664.968 698.131 672.274 716.066 684.614C710.493 638.166 725.048 589.572 759.583 554C794.114 589.57 808.67 638.161 803.1 684.606C821.032 672.274 843.237 664.962 867.292 664.96V680.057C867.291 698.668 861.549 716.033 851.64 730.741C895.681 726.174 941.343 741.293 975 775.96L970.852 780.233C938.249 813.815 894.111 828.26 851.577 823.585C861.543 838.665 867.293 856.398 867.292 875.372V887.032C843.175 887.032 820.905 879.696 802.95 867.307C808.549 913.778 793.993 962.408 759.441 998Z" fill="url(#paint12_linear_76_204)"/>
<mask id="mask8_76_204" style="mask-type:luminance" maskUnits="userSpaceOnUse" x="544" y="554" width="431" height="444">
<path d="M759.441 998C724.938 962.46 710.377 913.922 715.908 867.512C698.005 879.777 675.855 887.03 651.874 887.032V875.372C651.875 856.446 657.597 838.76 667.518 823.703C624.954 828.409 580.774 813.967 548.147 780.359L544 776.086C578.177 740.884 624.736 725.832 669.403 731.087C658.31 715.446 651.85 696.738 651.85 676.628V664.969C675.915 664.968 698.131 672.274 716.066 684.614C710.493 638.166 725.048 589.572 759.583 554C794.114 589.57 808.67 638.161 803.1 684.606C821.032 672.274 843.237 664.962 867.292 664.96V680.057C867.291 698.668 861.549 716.033 851.64 730.741C895.681 726.174 941.343 741.293 975 775.96L970.852 780.233C938.249 813.815 894.111 828.26 851.577 823.585C861.543 838.665 867.293 856.398 867.292 875.372V887.032C843.175 887.032 820.905 879.696 802.95 867.307C808.549 913.778 793.993 962.408 759.441 998Z" fill="white"/>
</mask>
<g mask="url(#mask8_76_204)">
<path d="M1134 396H385V1164H1134V396Z" fill="url(#paint13_radial_76_204)"/>
</g>
<mask id="mask9_76_204" style="mask-type:luminance" maskUnits="userSpaceOnUse" x="544" y="554" width="431" height="444">
<path d="M759.441 998C724.938 962.46 710.377 913.922 715.908 867.512C698.005 879.777 675.855 887.03 651.874 887.032V875.372C651.875 856.446 657.597 838.76 667.518 823.703C624.954 828.409 580.774 813.967 548.147 780.359L544 776.086C578.177 740.884 624.736 725.832 669.403 731.087C658.31 715.446 651.85 696.738 651.85 676.628V664.969C675.915 664.968 698.131 672.274 716.066 684.614C710.493 638.166 725.048 589.572 759.583 554C794.114 589.57 808.67 638.161 803.1 684.606C821.032 672.274 843.237 664.962 867.292 664.96V680.057C867.291 698.668 861.549 716.033 851.64 730.741C895.681 726.174 941.343 741.293 975 775.96L970.852 780.233C938.249 813.815 894.111 828.26 851.577 823.585C861.543 838.665 867.293 856.398 867.292 875.372V887.032C843.175 887.032 820.905 879.696 802.95 867.307C808.549 913.778 793.993 962.408 759.441 998Z" fill="white"/>
</mask>
<g mask="url(#mask9_76_204)">
<path d="M1134 396H385V1164H1134V396Z" fill="url(#paint14_radial_76_204)"/>
</g>
</g>
<defs>
<filter id="filter0_d_76_204" x="0" y="0" width="1521" height="1563.08" filterUnits="userSpaceOnUse" color-interpolation-filters="sRGB">
<feFlood flood-opacity="0" result="BackgroundImageFix"/>
<feColorMatrix in="SourceAlpha" type="matrix" values="0 0 0 0 0 0 0 0 0 0 0 0 0 0 0 0 0 0 127 0" result="hardAlpha"/>
<feOffset dy="6"/>
<feGaussianBlur stdDeviation="32"/>
<feComposite in2="hardAlpha" operator="out"/>
<feColorMatrix type="matrix" values="0 0 0 0 0.31 0 0 0 0 0.18 0 0 0 0 0.9 0 0 0 0.5 0"/>
<feBlend mode="normal" in2="BackgroundImageFix" result="effect1_dropShadow_76_204"/>
<feBlend mode="normal" in="SourceGraphic" in2="effect1_dropShadow_76_204" result="shape"/>
</filter>
<filter id="filter1_d_76_204" x="133" y="139" width="1253" height="1286.98" filterUnits="userSpaceOnUse" color-interpolation-filters="sRGB">
<feFlood flood-opacity="0" result="BackgroundImageFix"/>
<feColorMatrix in="SourceAlpha" type="matrix" values="0 0 0 0 0 0 0 0 0 0 0 0 0 0 0 0 0 0 127 0" result="hardAlpha"/>
<feOffset dy="6"/>
<feGaussianBlur stdDeviation="32"/>
<feComposite in2="hardAlpha" operator="out"/>
<feColorMatrix type="matrix" values="0 0 0 0 0.31 0 0 0 0 0.18 0 0 0 0 0.9 0 0 0 0.5 0"/>
<feBlend mode="normal" in2="BackgroundImageFix" result="effect1_dropShadow_76_204"/>
<feBlend mode="normal" in="SourceGraphic" in2="effect1_dropShadow_76_204" result="shape"/>
</filter>
<filter id="filter2_d_76_204" x="291" y="298" width="938" height="963.638" filterUnits="userSpaceOnUse" color-interpolation-filters="sRGB">
<feFlood flood-opacity="0" result="BackgroundImageFix"/>
<feColorMatrix in="SourceAlpha" type="matrix" values="0 0 0 0 0 0 0 0 0 0 0 0 0 0 0 0 0 0 127 0" result="hardAlpha"/>
<feOffset dy="4"/>
<feGaussianBlur stdDeviation="22"/>
<feComposite in2="hardAlpha" operator="out"/>
<feColorMatrix type="matrix" values="0 0 0 0 0.13 0 0 0 0 0.6 0 0 0 0 0.95 0 0 0 0.45 0"/>
<feBlend mode="normal" in2="BackgroundImageFix" result="effect1_dropShadow_76_204"/>
<feBlend mode="normal" in="SourceGraphic" in2="effect1_dropShadow_76_204" result="shape"/>
</filter>
<filter id="filter3_d_76_204" x="381" y="394" width="757" height="776" filterUnits="userSpaceOnUse" color-interpolation-filters="sRGB">
<feFlood flood-opacity="0" result="BackgroundImageFix"/>
<feColorMatrix in="SourceAlpha" type="matrix" values="0 0 0 0 0 0 0 0 0 0 0 0 0 0 0 0 0 0 127 0" result="hardAlpha"/>
<feOffset dy="6"/>
<feGaussianBlur stdDeviation="32"/>
<feComposite in2="hardAlpha" operator="out"/>
<feColorMatrix type="matrix" values="0 0 0 0 0.31 0 0 0 0 0.18 0 0 0 0 0.9 0 0 0 0.5 0"/>
<feBlend mode="normal" in2="BackgroundImageFix" result="effect1_dropShadow_76_204"/>
<feBlend mode="normal" in="SourceGraphic" in2="effect1_dropShadow_76_204" result="shape"/>
</filter>
<filter id="filter4_d_76_204" x="500" y="514" width="519" height="532" filterUnits="userSpaceOnUse" color-interpolation-filters="sRGB">
<feFlood flood-opacity="0" result="BackgroundImageFix"/>
<feColorMatrix in="SourceAlpha" type="matrix" values="0 0 0 0 0 0 0 0 0 0 0 0 0 0 0 0 0 0 127 0" result="hardAlpha"/>
<feOffset dy="4"/>
<feGaussianBlur stdDeviation="22"/>
<feComposite in2="hardAlpha" operator="out"/>
<feColorMatrix type="matrix" values="0 0 0 0 0.13 0 0 0 0 0.6 0 0 0 0 0.95 0 0 0 0.45 0"/>
<feBlend mode="normal" in2="BackgroundImageFix" result="effect1_dropShadow_76_204"/>
<feBlend mode="normal" in="SourceGraphic" in2="effect1_dropShadow_76_204" result="shape"/>
</filter>
<linearGradient id="paint0_linear_76_204" x1="64" y1="58" x2="1457" y2="1493.08" gradientUnits="userSpaceOnUse">
<stop stop-color="#A78BFA"/>
<stop offset="0.35" stop-color="#7C3AED"/>
<stop offset="0.65" stop-color="#4F46E5"/>
<stop offset="1" stop-color="#06B6D4"/>
</linearGradient>
<radialGradient id="paint1_radial_76_204" cx="0" cy="0" r="1" gradientUnits="userSpaceOnUse" gradientTransform="translate(759.393 775.539) scale(620.095 620.095)">
<stop stop-color="#C4B5FD" stop-opacity="0.55"/>
<stop offset="0.6" stop-color="#7C3AED" stop-opacity="0.1"/>
<stop offset="1" stop-color="#4F46E5" stop-opacity="0"/>
</radialGradient>
<radialGradient id="paint2_radial_76_204" cx="0" cy="0" r="1" gradientUnits="userSpaceOnUse" gradientTransform="translate(529.072 421.199) scale(398.633 398.633)">
<stop stop-color="white" stop-opacity="0.22"/>
<stop offset="1" stop-color="white" stop-opacity="0"/>
</radialGradient>
<linearGradient id="paint3_linear_76_204" x1="197" y1="197" x2="1322" y2="1355.98" gradientUnits="userSpaceOnUse">
<stop stop-color="#A78BFA"/>
<stop offset="0.35" stop-color="#7C3AED"/>
<stop offset="0.65" stop-color="#4F46E5"/>
<stop offset="1" stop-color="#06B6D4"/>
</linearGradient>
<radialGradient id="paint4_radial_76_204" cx="0" cy="0" r="1" gradientUnits="userSpaceOnUse" gradientTransform="translate(758.606 776.491) scale(500.795 500.795)">
<stop stop-color="#C4B5FD" stop-opacity="0.55"/>
<stop offset="0.6" stop-color="#7C3AED" stop-opacity="0.1"/>
<stop offset="1" stop-color="#4F46E5" stop-opacity="0"/>
</radialGradient>
<radialGradient id="paint5_radial_76_204" cx="0" cy="0" r="1" gradientUnits="userSpaceOnUse" gradientTransform="translate(572.596 490.323) scale(321.94 321.94)">
<stop stop-color="white" stop-opacity="0.22"/>
<stop offset="1" stop-color="white" stop-opacity="0"/>
</radialGradient>
<linearGradient id="paint6_linear_76_204" x1="1185" y1="338" x2="335" y2="1213.64" gradientUnits="userSpaceOnUse">
<stop stop-color="#E0D9FF"/>
<stop offset="0.4" stop-color="#A78BFA"/>
<stop offset="0.75" stop-color="#6366F1"/>
<stop offset="1" stop-color="#22D3EE"/>
</linearGradient>
<radialGradient id="paint7_radial_76_204" cx="0" cy="0" r="1" gradientUnits="userSpaceOnUse" gradientTransform="translate(759.014 775.819) scale(552.204 552.204)">
<stop stop-color="#C4B5FD" stop-opacity="0.55"/>
<stop offset="0.6" stop-color="#7C3AED" stop-opacity="0.1"/>
<stop offset="1" stop-color="#4F46E5" stop-opacity="0"/>
</radialGradient>
<radialGradient id="paint8_radial_76_204" cx="0" cy="0" r="1" gradientUnits="userSpaceOnUse" gradientTransform="translate(553.909 460.274) scale(354.988 354.988)">
<stop stop-color="white" stop-opacity="0.22"/>
<stop offset="1" stop-color="white" stop-opacity="0"/>
</radialGradient>
<linearGradient id="paint9_linear_76_204" x1="445" y1="452" x2="1074" y2="1100" gradientUnits="userSpaceOnUse">
<stop stop-color="#A78BFA"/>
<stop offset="0.35" stop-color="#7C3AED"/>
<stop offset="0.65" stop-color="#4F46E5"/>
<stop offset="1" stop-color="#06B6D4"/>
</linearGradient>
<radialGradient id="paint10_radial_76_204" cx="0" cy="0" r="1" gradientUnits="userSpaceOnUse" gradientTransform="translate(759 776) scale(280 280)">
<stop stop-color="#C4B5FD" stop-opacity="0.55"/>
<stop offset="0.6" stop-color="#7C3AED" stop-opacity="0.1"/>
<stop offset="1" stop-color="#4F46E5" stop-opacity="0"/>
</radialGradient>
<radialGradient id="paint11_radial_76_204" cx="0" cy="0" r="1" gradientUnits="userSpaceOnUse" gradientTransform="translate(655 616) scale(180 180)">
<stop stop-color="white" stop-opacity="0.22"/>
<stop offset="1" stop-color="white" stop-opacity="0"/>
</radialGradient>
<linearGradient id="paint12_linear_76_204" x1="975" y1="554" x2="544" y2="998" gradientUnits="userSpaceOnUse">
<stop stop-color="#E0D9FF"/>
<stop offset="0.4" stop-color="#A78BFA"/>
<stop offset="0.75" stop-color="#6366F1"/>
<stop offset="1" stop-color="#22D3EE"/>
</linearGradient>
<radialGradient id="paint13_radial_76_204" cx="0" cy="0" r="1" gradientUnits="userSpaceOnUse" gradientTransform="translate(759 776) scale(280 280)">
<stop stop-color="#C4B5FD" stop-opacity="0.55"/>
<stop offset="0.6" stop-color="#7C3AED" stop-opacity="0.1"/>
<stop offset="1" stop-color="#4F46E5" stop-opacity="0"/>
</radialGradient>
<radialGradient id="paint14_radial_76_204" cx="0" cy="0" r="1" gradientUnits="userSpaceOnUse" gradientTransform="translate(655 616) scale(180 180)">
<stop stop-color="white" stop-opacity="0.22"/>
<stop offset="1" stop-color="white" stop-opacity="0"/>
</radialGradient>
</defs>
</svg>
