<svg
  viewBox="0 0 256 256"
  xmlns="http://www.w3.org/2000/svg"
  fill="none"
>
  <g>
    <path
      fill-rule="evenodd"
      clip-rule="evenodd"
      d="M196.625 79.017C197.479 77.8331 196.633 76.1799 195.174 76.1799H106.012H33.7533C32.2831 76.1799 31.4398 74.5055 32.315 73.3241L86.101 0.724444C86.4386 0.268753 86.9721 0 87.5391 0H255.468C256.256 0 256.951 0.515324 257.18 1.26925L284.33 90.5515C284.495 91.095 284.392 91.6846 284.053 92.1404L227.849 167.72C227.511 168.174 226.978 168.442 226.412 168.442H132.125L196.625 79.017Z"
      fill="white"
    />
    <path
      fill-rule="evenodd"
      clip-rule="evenodd"
      d="M106.012 76.1798L132.125 168.442L95.5981 217.659C95.2601 218.114 94.727 218.382 94.1603 218.382H1.79327C0.313903 218.382 -0.5269 216.689 0.366927 215.51L106.012 76.1798Z"
      fill="white"
    />
  </g>
</svg>